<?xml version="1.0" standalone="no"?>
<!DOCTYPE svg PUBLIC "-//W3C//DTD SVG 20010904//EN"
 "http://www.w3.org/TR/2001/REC-SVG-20010904/DTD/svg10.dtd">
<svg version="1.0" xmlns="http://www.w3.org/2000/svg"
 width="700.000000pt" height="700.000000pt" viewBox="0 0 700.000000 700.000000"
 preserveAspectRatio="xMidYMid meet">
<metadata>
Created by potrace 1.14, written by Peter Selinger 2001-2017
</metadata>
<g transform="translate(0.000000,700.000000) scale(0.100000,-0.100000)"
fill="#000000" stroke="none">
<path d="M0 3500 l0 -3500 3500 0 3500 0 0 3500 0 3500 -3500 0 -3500 0 0
-3500z m5450 2265 c388 -19 676 -155 781 -370 l34 -70 0 -755 c0 -701 -1 -759
-18 -814 -10 -32 -29 -75 -41 -95 -32 -50 -104 -114 -154 -136 l-42 -19 0 -90
c0 -103 -10 -130 -60 -164 -52 -35 -113 -26 -157 22 -32 35 -33 39 -33 121 l0
85 -510 0 -510 0 0 -70 c0 -39 -6 -86 -14 -105 -27 -64 -112 -93 -175 -61 -50
27 -65 61 -69 167 l-4 97 -41 18 c-56 26 -138 109 -165 168 -13 26 -27 72 -33
101 -6 32 -8 344 -7 796 l3 744 26 55 c86 181 290 303 594 355 105 18 342 34
435 29 30 -2 102 -6 160 -9z m-3607 -176 c91 -68 166 -127 167 -131 0 -4 -44
-40 -97 -80 l-96 -73 146 -3 c81 -1 213 -1 293 0 l145 3 -100 75 c-79 58 -98
77 -89 86 7 6 87 66 177 134 127 95 167 120 181 114 28 -14 339 -248 340 -256
0 -4 -44 -40 -97 -80 l-97 -73 190 -6 c197 -6 233 -13 313 -61 55 -33 139
-117 171 -174 59 -102 61 -121 58 -682 -3 -498 -4 -511 -24 -538 -46 -62 -65
-69 -199 -72 l-123 -4 -5 -35 c-12 -72 -97 -143 -172 -143 -42 0 -107 32 -134
65 -12 16 -26 48 -32 72 -11 42 -12 43 -54 43 -42 0 -42 0 -49 -42 -10 -60
-77 -124 -140 -133 -97 -15 -180 46 -201 148 l-5 27 -204 0 -203 0 -7 -42
c-10 -61 -75 -124 -138 -133 -91 -14 -175 41 -197 129 l-11 46 -45 0 c-42 0
-45 -2 -45 -25 0 -34 -21 -73 -57 -107 -55 -52 -119 -61 -190 -27 -48 23 -93
87 -93 132 l0 27 -112 0 c-129 0 -183 18 -218 74 -19 32 -20 48 -20 554 0 478
1 525 18 580 34 108 122 215 216 264 90 46 116 51 309 57 l188 6 -100 75 c-56
41 -98 77 -93 81 41 42 341 257 353 255 8 -2 90 -59 182 -127z m237 -3324 l0
-305 -49 0 c-44 0 -49 3 -55 25 -6 24 -26 36 -26 16 0 -21 -68 -51 -117 -51
-62 0 -108 28 -137 85 -25 48 -34 178 -17 243 32 117 155 165 252 99 l34 -23
-3 108 -4 108 61 0 61 0 0 -305z m1750 180 l0 -45 60 0 60 0 0 -45 0 -45 -60
0 -60 0 0 -120 c0 -115 1 -120 24 -135 18 -12 32 -14 65 -6 l41 9 0 -44 c0
-39 -3 -46 -26 -54 -39 -15 -131 -12 -165 6 -48 24 -59 65 -59 214 l0 130 -30
0 c-44 0 -42 41 4 69 22 14 39 36 50 66 17 43 20 45 57 45 l39 0 0 -45z
m-1335 -61 c56 -26 87 -80 93 -164 l5 -70 -142 0 -141 0 0 -26 c0 -15 12 -38
29 -55 25 -25 37 -29 84 -29 30 0 74 7 97 15 23 8 44 15 47 15 2 0 3 -21 1
-47 -3 -46 -4 -48 -43 -59 -22 -7 -71 -13 -110 -13 -139 -1 -220 68 -232 197
-14 158 83 270 224 258 28 -2 68 -12 88 -22z m492 15 c77 -29 112 -98 113
-220 0 -74 -4 -93 -27 -139 -33 -63 -75 -90 -144 -90 -33 0 -57 7 -83 25 l-36
24 0 -119 0 -120 -60 0 -60 0 0 320 0 320 50 0 c45 0 50 -3 56 -25 7 -30 15
-31 39 -5 31 35 102 48 152 29z m517 -17 c57 -33 66 -67 66 -254 l0 -168 -45
0 c-29 0 -45 4 -45 13 0 6 -5 19 -10 27 -8 12 -12 11 -32 -7 -37 -33 -63 -43
-118 -43 -95 0 -140 45 -140 139 0 91 75 141 212 141 55 0 58 1 58 25 0 34
-33 65 -70 65 -16 0 -50 -7 -76 -16 -25 -8 -47 -14 -49 -12 -18 21 -35 72 -27
80 38 38 217 44 276 10z m1364 -29 l-3 -58 -54 -5 c-42 -5 -58 -12 -77 -33
-23 -27 -24 -35 -24 -163 l0 -134 -65 0 -65 0 0 220 0 220 49 0 c48 0 49 -1
55 -35 4 -19 8 -35 10 -35 2 0 20 15 40 34 36 34 55 42 109 45 28 1 28 1 25
-56z m334 47 c45 -13 93 -52 114 -91 8 -16 18 -59 21 -94 l6 -65 -147 0 c-80
0 -146 -4 -146 -9 0 -29 26 -74 51 -86 35 -19 112 -19 164 0 22 8 41 15 43 15
2 0 2 -21 0 -47 -3 -46 -5 -49 -43 -61 -26 -9 -70 -12 -123 -10 -71 4 -88 8
-124 34 -61 43 -81 83 -86 174 -4 68 -1 85 20 132 44 96 142 138 250 108z
m-1032 -155 c0 -153 0 -156 25 -181 21 -21 31 -24 58 -19 18 4 40 15 50 24 23
22 37 111 37 234 l0 97 60 0 60 0 0 -220 0 -220 -49 0 c-44 0 -49 3 -55 25
l-7 26 -35 -28 c-47 -36 -141 -43 -194 -16 -61 32 -70 64 -70 261 l0 172 60 0
60 0 0 -155z m-322 -751 c26 -18 30 -65 6 -88 -35 -36 -114 -9 -114 39 0 53
62 82 108 49z m282 -114 l0 -50 60 0 60 0 0 -45 0 -45 -60 0 -60 0 0 -119 c0
-140 4 -147 80 -138 l50 6 0 -44 c0 -42 -1 -44 -37 -54 -53 -15 -108 -14 -149
4 -53 22 -64 60 -64 215 l0 130 -30 0 c-26 0 -30 4 -30 28 0 21 8 32 33 45 25
14 38 31 51 68 17 47 19 49 57 49 l39 0 0 -50z m-1907 -51 c12 -6 32 -21 45
-32 l22 -20 23 21 c72 67 210 52 249 -28 15 -29 18 -63 18 -207 l0 -173 -60 0
-60 0 0 148 c0 180 -6 197 -69 197 -36 0 -47 -5 -64 -27 -17 -23 -21 -47 -25
-172 l-5 -146 -58 0 -59 0 0 157 c0 174 -6 193 -62 193 -73 0 -88 -36 -88
-216 l0 -134 -60 0 -60 0 0 220 0 220 45 0 c39 0 45 -3 51 -25 7 -26 18 -32
30 -14 25 42 136 64 187 38z m782 -15 c25 -13 51 -39 70 -69 27 -44 30 -56 30
-134 0 -75 -3 -92 -27 -131 -87 -150 -329 -123 -384 42 -30 91 -5 218 54 271
55 50 182 60 257 21z m546 3 c61 -40 69 -71 69 -259 l0 -168 -60 0 -60 0 0
148 c0 183 -6 197 -74 197 -42 0 -52 -4 -70 -28 -19 -25 -21 -45 -24 -173 l-4
-144 -59 0 -59 0 0 220 0 220 50 0 c43 0 50 -3 50 -19 0 -27 15 -34 31 -14 39
47 154 58 210 20z m1094 -3 c25 -13 51 -39 70 -69 27 -44 30 -56 30 -134 0
-75 -3 -92 -27 -131 -64 -110 -230 -132 -329 -43 -89 81 -90 276 -1 356 55 50
182 60 257 21z m495 9 c0 -10 -3 -35 -6 -55 -6 -34 -10 -38 -36 -38 -46 0 -95
-26 -112 -59 -12 -22 -16 -61 -16 -156 l0 -125 -60 0 -60 0 0 221 0 220 47 -3
c44 -3 47 -5 56 -37 l8 -34 22 26 c30 36 74 57 120 57 29 0 37 -4 37 -17z
m-1270 -213 l0 -220 -60 0 -60 0 0 220 0 220 60 0 60 0 0 -220z"/>
<path d="M5000 5509 c-160 -18 -324 -63 -383 -104 -19 -14 42 -15 628 -15 574
1 648 2 631 15 -53 40 -235 89 -395 105 -119 12 -372 11 -481 -1z"/>
<path d="M4480 4820 l0 -320 765 0 765 0 0 320 0 320 -765 0 -765 0 0 -320z"/>
<path d="M4483 4234 c-3 -8 -4 -105 -1 -214 4 -166 8 -203 22 -225 37 -56 27
-56 761 -53 l675 3 32 33 33 32 3 220 3 220 -761 0 c-683 0 -761 -2 -767 -16z
m312 -130 c83 -39 95 -148 24 -209 -24 -19 -42 -25 -81 -25 -43 0 -54 4 -83
33 -43 43 -52 79 -34 131 26 74 102 104 174 70z m1019 1 c42 -20 66 -63 66
-117 0 -73 -50 -118 -130 -118 -32 0 -48 7 -76 33 -108 98 7 265 140 202z"/>
<path d="M1600 5523 c-25 -19 -54 -42 -65 -50 -20 -14 -19 -15 15 -44 19 -16
52 -41 72 -56 l37 -25 71 52 c38 28 70 54 70 56 0 8 -134 104 -144 103 -6 0
-31 -16 -56 -36z"/>
<path d="M2500 5523 c-25 -19 -54 -42 -65 -50 -20 -14 -19 -15 15 -44 19 -16
52 -41 72 -56 l37 -25 71 52 c38 28 70 54 70 56 0 8 -134 104 -144 103 -6 0
-31 -16 -56 -36z"/>
<path d="M1126 5105 c-81 -29 -166 -128 -180 -212 -3 -21 -6 -242 -6 -490 l0
-453 1165 0 1165 0 0 478 0 479 -31 62 c-33 65 -67 98 -139 130 -44 20 -62 21
-990 20 -778 0 -952 -2 -984 -14z m464 -670 l0 -305 -155 0 -155 0 0 305 0
305 155 0 155 0 0 -305z m680 150 l0 -155 -180 0 -180 0 0 155 0 155 180 0
180 0 0 -155z m670 0 l0 -155 -180 0 -180 0 0 155 0 155 180 0 180 0 0 -155z"/>
<path d="M1837 2299 c-67 -39 -60 -223 9 -249 33 -13 90 3 103 28 31 58 23
171 -14 208 -26 26 -67 31 -98 13z"/>
<path d="M2335 2295 c-14 -13 -25 -33 -25 -45 0 -19 6 -20 86 -20 84 0 85 0
79 23 -21 67 -94 89 -140 42z"/>
<path d="M2847 2298 c-35 -28 -48 -115 -27 -190 12 -43 34 -58 84 -58 44 0 67
31 74 100 6 64 -5 117 -29 141 -22 22 -77 25 -102 7z"/>
<path d="M3350 2153 c-30 -11 -50 -37 -50 -63 0 -36 17 -50 62 -50 52 0 88 35
88 85 0 35 0 35 -42 34 -24 0 -50 -3 -58 -6z"/>
<path d="M5083 2298 c-11 -13 -23 -33 -26 -45 -5 -22 -3 -23 79 -23 78 0 84 1
84 20 0 60 -96 93 -137 48z"/>
<path d="M2836 1221 c-44 -48 -44 -174 0 -218 31 -31 87 -31 118 0 43 43 43
171 0 218 -23 26 -94 26 -118 0z"/>
<path d="M4476 1221 c-44 -48 -44 -174 0 -218 31 -31 87 -31 118 0 43 43 43
171 0 218 -23 26 -94 26 -118 0z"/>
</g>
</svg>
